/* XPM */
static char *_59c1437b12d48e5e8d52a8d1f84a29cJv6MkxkBi4e80jf6[] = {
/* columns rows colors chars-per-pixel */
"64 64 190 2 ",
"   c None",
".  c #010101",
"X  c #090603",
"o  c #0C0A04",
"O  c #0D0D08",
"+  c #120D06",
"@  c #190F08",
"#  c #180F08",
"$  c #131207",
"%  c #15140A",
"&  c #1C1309",
"*  c #1D1B0B",
"=  c #1C1C12",
"-  c #21160B",
";  c #231C0C",
":  c #2C1D0E",
">  c #301F10",
",  c #26220E",
"<  c #29250F",
"1  c #232316",
"2  c #2E2A12",
"3  c #2D2D1C",
"4  c #272819",
"5  c #332211",
"6  c #392613",
"7  c #312D12",
"8  c #3D2914",
"9  c #363113",
"0  c #3B3615",
"q  c #3D3816",
"w  c #38351A",
"e  c #3B3B24",
"r  c #363622",
"t  c #432D16",
"y  c #413B17",
"u  c #4B3319",
"i  c #443D19",
"p  c #453217",
"a  c #51361A",
"s  c #563A1C",
"d  c #5B3D1E",
"f  c #4B451B",
"g  c #4F481C",
"h  c #534C1E",
"j  c #57421D",
"k  c #57501F",
"l  c #44432A",
"z  c #484628",
"x  c #504D2C",
"c  c #5B5221",
"v  c #4E4E30",
"b  c #535333",
"n  c #5D5D39",
"m  c #644421",
"M  c #6C4924",
"N  c #724D26",
"B  c #645C24",
"V  c #685F26",
"C  c #615522",
"Z  c #7D5429",
"A  c #785127",
"S  c #6A6126",
"D  c #6F6428",
"F  c #716729",
"G  c #756A2A",
"H  c #796F2C",
"J  c #7D722D",
"K  c #64633D",
"L  c #6D6D43",
"P  c #686740",
"I  c #706F45",
"U  c #737246",
"Y  c #78774A",
"T  c #7D7C4C",
"R  c #757448",
"E  c #855A2C",
"W  c #8B5D2D",
"Q  c #81572B",
"!  c #8E612F",
"~  c #81762F",
"^  c #84782F",
"/  c #946431",
"(  c #9B6A33",
")  c #847830",
"_  c #8A7E32",
"`  c #9F7636",
"'  c #A36E35",
"]  c #A67037",
"[  c #AB7438",
"{  c #A87137",
"}  c #B3793B",
"|  c #B87C3D",
" . c #B0773A",
".. c #8D8133",
"X. c #918534",
"o. c #968936",
"O. c #998B37",
"+. c #9B8E38",
"@. c #9E9039",
"#. c #BD813F",
"$. c #A3943B",
"%. c #A7983C",
"&. c #AA9B3D",
"*. c #B0A03F",
"=. c #C0823F",
"-. c #83824F",
";. c #848351",
":. c #8C8B55",
">. c #908F57",
",. c #979458",
"<. c #BF8C40",
"1. c #AFA040",
"2. c #B4A441",
"3. c #BBAB44",
"4. c #B8A742",
"5. c #9F9E62",
"6. c #A09F62",
"7. c #A5A465",
"8. c #ABA968",
"9. c #B4B36E",
"0. c #BCBA73",
"q. c #B8B670",
"w. c #C28440",
"e. c #C88742",
"r. c #CC8A43",
"t. c #D28E45",
"y. c #D69147",
"u. c #D89247",
"i. c #DD9549",
"p. c #D39D48",
"a. c #C39142",
"s. c #E59B4B",
"d. c #EA9E4D",
"f. c #C1AF45",
"g. c #C3B246",
"h. c #C7B548",
"j. c #C8B648",
"k. c #CDBA4A",
"l. c #D1BE4C",
"z. c #EAA34E",
"x. c #E5A64D",
"c. c #EDAE50",
"v. c #EAB851",
"b. c #F1B953",
"n. c #E8B24F",
"m. c #C1BE73",
"M. c #D6C34D",
"N. c #D9C64F",
"B. c #DCC84F",
"V. c #DDCA50",
"C. c #E2CE51",
"Z. c #E9C452",
"A. c #F5C555",
"S. c #F9CC57",
"D. c #E6D153",
"F. c #E9D555",
"G. c #EDD956",
"H. c #F0DB57",
"J. c #FBD459",
"K. c #F4DE58",
"L. c #FCDC59",
"P. c #F6D257",
"I. c #F6E159",
"U. c #FCE55B",
"Y. c #FFE85C",
"T. c #FFE95C",
"R. c #FFE95D",
"E. c #FFEA5D",
"W. c #FFEB5D",
"Q. c #FEEA5D",
"!. c #FDE95C",
"~. c #FFEC5D",
"^. c #FFE85C",
"/. c #CCCB7D",
"(. c #D0CE7F",
"). c #DAD57B",
"_. c #D5D383",
"`. c #DAD984",
"'. c #DFDD89",
"]. c #D9D784",
"[. c #E6E48D",
"{. c #E8E68B",
"}. c #ECEA91",
"|. c #F0EE93",
" X c #F5F396",
".X c #F7F799",
"XX c #FFFE9D",
"oX c #FFFE9D",
"OX c #F9F798",
"+X c #FFFFA1",
/* pixels */
"                                                                                                                                ",
"                                                                . . . . . .                                                     ",
"                                                    * X . . X + ; 2 2 , $ X . . . .                                             ",
"                                                X X % q G $.3.k.C.F.F.D.M.f.%.G 9 o . .                                         ",
"                                          . . $ g O.k.K.E.~.~.E.E.E.E.E.E.E.E.E.H.3.V $ . .                                     ",
"                                      . . , H j.I.~.E.E.E.E.E.E.Y.E.Y.Y.E.Y.Y.Y.E.E.I.h.h X .                                   ",
"                                  . . ; ) B.E.E.E.E.E.E.E.E.E.E.E.E.E.E.E.E.Y.Y.E.E.E.E.K.+.* . .                               ",
"                                . + F M.E.E.E.E.E.E.E.E.E.I.I.I.I.E.E.E.E.E.Y.Y.E.E.E.E.E.E.h.0 . .                             ",
"                            . . 0 4.I.E.E.E.E.E.E.H.h...C y 0 0 f 4.E.Y.Y.E.Y.Y.Y.Y.Y.Y.E.E.E.V.f . . .                         ",
"                          . o G D.E.E.E.E.E.Y.l.H 9 o X $ 2 0 , + B I.Y.E.E.E.E.Y.Y.Y.E.E.E.E.E.C.f . . .                       ",
"                        . & @.I.E.E.E.E.E.k.V % X 9 ~ 4.M.G.K.F.M.F.E.E.E.E.E.E.Y.E.Y.E.E.E.E.E.E.B.9 . . .                     ",
"                      . < 4.E.E.E.E.E.F.J & o c 4.G.E.~.E.E.E.E.E.E.E.E.E.E.E.E.E.E.Y.Y.Y.E.E.E.E.E.g.* . . .                   ",
"                    . 7 k.E.E.E.E.E.3.0 X g 3.I.~.E.Y.Y.E.E.E.E.Y.Y.Y.E.E.E.Y.Y.E.E.E.E.Y.Y.Y.Y.E.E.E.X.X . .                   ",
"                  . 2 k.E.E.E.E.I._ $ * O.H.E.Y.E.E.Y.Y.E.E.E.E.Y.Y.E.E.E.E.E.Y.E.E.E.E.Y.Y.Y.Y.E.Y.E.H.h . . .                 ",
"                . * g.E.E.E.E.G.S X i k.E.E.E.E.Y.E.Y.Y.E.E.E.E.E.U.E.E.E.E.Y.Y.Y.Y.E.Y.Y.Y.Y.E.E.E.E.E.g.% # + .               ",
"              . O &.E.E.E.E.F.c X S F.E.E.E.E.E.E.E.Y.Y.Y.E.E.C.~ h J F.E.E.Y.Y.Y.Y.Y.Y.Y.Y.Y.E.E.E.E.E.Y.V o u X .             ",
"              . J U.E.E.E.G.c X J H.E.E.E.E.E.E.E.E.E.E.E.E.k.9 . . . ~ E.E.E.E.E.E.E.E.E.E.E.E.E.E.E.E.E.h.$ m u .             ",
"            . y F.E.E.E.I.V X J I.E.E.E.E.G.$.D o.N.E.E.E.D.0 O -.0.e , V.E.E.E.E.E.E.E.E.E.E.E.E.E.E.E.E.I.f > ] % .           ",
"          . O 4.E.E.E.E._ X F I.E.E.E.E.G.c X O X * o.I.E.) . ;.XX+X7.X 0 C S *.U.Y.E.E.E.E.Y.Y.E.E.E.E.E.E.X.X } N .           ",
"          . V I.E.E.E.4.$ i F.E.E.E.E.E.$.X U /.8.3 X $.I.0 3 [.XXXX{.z O % X $ 2.E.E.E.E.Y.Y.Y.Y.Y.E.E.E.E.k.+ ! r.- .         ",
"        . % k.E.E.E.F.0 O 4.E.Y.E.E.Y.E.B % ].+XXX/.1 7 3.* P XXXXXXXX}.(.'.7.% h I.E.E.E.E.Y.Y.Y.Y.Y.Y.E.E.G.7 m d.N .         ",
"        . V U.E.E.E.~ . V I.Y.Y.E.E.E.H.q 3 }.XXXXXX:.X V + >.XXXXXXXXXXXXXX Xe 0 K.E.E.E.E.Y.Y.Y.Y.Y.Y.E.E.I.f 6 s.=.$ .       ",
"      . o 4.~.E.E.N.; * l.E.E.E.E.E.I.^ X b OXXXXXXX`.* $ X :.XXXXXXXXXXXXXX_.% C U.E.E.E.Y.Y.Y.E.E.Y.Y.E.E.E.V & { i.u .       ",
"      . q H.E.E.E._ . ..E.Y.Y.E.E.H.D X l _.XXXXXXXXOXx . . -.XXXXXXXXXXXX.XP X 2.E.E.E.E.E.Y.Y.E.E.Y.Y.E.E.E.S . o N A .       ",
"      . _ E.E.E.E.F h G.E.Y.E.E.Y.J % ;.}.XXXXXXXXXXXXT . . -.XXXXXXXXXX'.I o S I.E.Y.Y.Y.Y.E.E.E.E.Y.Y.Y.Y.E.V X & X u X .     ",
"    . o 3.E.E.E.E.C.F.E.Y.Y.E.E.N.* Y XXXXXXXXXXXXXXXX8.X . ,.XXXX[.8.K 1 X B F.~.E.E.Y.Y.E.E.E.E.E.Y.Y.Y.Y.E.V @ ' 5 . . .     ",
"    . 2 F.E.E.E.E.E.E.E.Y.E.E.E.j.o R  XXXXXXXXXXXXXXX/.% X 9.XX6.3 X . . X 0 F l.E.Y.Y.Y.Y.E.E.E.E.E.Y.E.E.E.V & t.| - . .     ",
"    . c U.E.E.E.E.E.E.E.E.E.E.E.H.i X l K U T -.5.`.XX XL Y  X5.O . . . % 4 % . < k.E.Y.Y.Y.E.E.E.E.Y.Y.E.E.U.h > i.d.[ & .     ",
"    . ..~.E.Y.Y.Y.Y.Y.E.E.E.E.E.E.l.c * X . . . . 1 q.XXOXoXoXL % 3 n 7./.[.].:.O C U.E.Y.Y.E.E.E.E.E.E.E.E.I.q : r.d.s.t .     ",
"    . %.~.E.Y.Y.Y.Y.E.E.E.E.E.E.E.~.G.O.q * X . . . K oXXXXXXX|.`.}.oXXXXXXXXX Xe 7 H.E.Y.Y.E.E.E.E.E.E.E.E.D.< . 6 w.s.t .     ",
"  . X 3.E.E.Y.E.Y.Y.Y.Y.E.E.E.E.E.k.g X . X = r e l q.XXXXXXoXXXXXXXXXXXXXXXXX].1 j K.E.Y.Y.Y.Y.E.E.E.E.Y.E.h.O & X t r.8 .     ",
"  . X g.E.E.E.E.Y.Y.Y.Y.E.E.E.E.M.7 X l :.0.].}. X.XXXXX[.Y n ,. XXXXXXXXXXX).z : #.S.E.Y.Y.Y.Y.Y.Y.E.E.Y.E.O.X / m . u : .     ",
"  . O h.E.Y.Y.Y.Y.E.Y.Y.Y.Y.Y.U.C = 7. XXXXXXXXXXXXXXX[.b . . X 7.XXXXXXXXm.2 5 w.b.L.E.Y.E.Y.Y.E.Y.Y.Y.Y.Y.c # e.i.M X . .     ",
"  . O j.E.Y.Y.Y.E.E.E.E.Y.Y.E.M.* >.XXXXXXXXXXXXXXXXXXU . . # o b OXXXXXOXv # <.J.U.E.E.Y.E.Y.Y.E.E.E.E.E.F.2 t s.d.s.Z . .     ",
"  . o g.E.Y.E.E.E.E.E.E.E.E.E.f.X ,.XXXXXXXXXXXXXXXX'.1 + o : 6 4 [.XXXX Xe a A.E.E.E.E.E.E.E.E.E.E.E.E.E.4.X Q d.s.d./ .       ",
"  . X f.E.E.E.E.E.E.E.E.E.E.E.C., w ).XXXXXXXXXXXXXX,.. N 5 & m o 0.XXXX Xe A J.E.E.E.E.E.E.N.l.Y.E.E.E.Y.S . 5 { d.d.m .       ",
"  . X 2.~.E.E.E.E.E.Y.Y.E.E.E.E.+.+ 2 -.}.XXXXXXXX Xz & w.p # / + b '.[.;.+ ` U.E.E.E.E.E.G.q i I.E.E.E.C., & o % ] s.6 .       ",
"    . o.~.E.E.E.E.E.Y.Y.E.E.E.E.I.3.h X ;.XXXXXXXX9.O N c.C + w.m . 1 1 X j Z.E.E.E.E.E.E.$.. V U.E.E.E.X.X ( Q X - E + .       ",
"    . D E.E.E.E.E.E.Y.Y.Y.Y.E.E.E.~.G.9 l .XXXXX[.e - w.A.V @ p.v.! u s ( Z.E.E.E.E.E.E.I.g o 3.E.E.E.F.9 5 u.s.N X o .         ",
"    . 0 H.E.E.E.E.E.Y.Y.Y.Y.Y.Y.E.E.E.C = _. Xm.l o / c.L.k : x.Y.J.A.A.L.E.E.E.E.E.E.E.1.o B I.E.E.E.X.X / d.d.s.E X .         ",
"    . $ k.E.E.E.E.E.Y.Y.Y.E.E.E.Y.Y.E.X.. 4 r O + W z.J.I.q 8 n.Y.E.E.E.E.E.E.E.Y.Y.E.V.7 , M.E.E.E.C.2 & r.d.s.d.{ X           ",
"      . O.~.E.E.E.E.Y.Y.Y.Y.E.E.Y.Y.E.H.O.p 5 d } z.P.E.V.* M A.E.Y.Y.Y.E.E.E.Y.Y.E.F.h o &.E.E.E.E.H . . s y.d.s.s .           ",
"      . f I.E.E.E.Y.Y.Y.E.E.E.E.Y.Y.E.E.E.P.n.c.A.L.E.E.$.X / S.E.Y.Y.Y.E.E.E.E.E.F.c . J I.E.E.E.4.$ u 8 . a t.| # .           ",
"      . O g.E.E.Y.Y.Y.Y.E.E.E.E.Y.Y.E.E.E.E.Y.Y.E.E.E.I.f o #.J.E.Y.Y.E.E.E.E.E.V.h . S H.E.E.E.D.9 - e.e.t . 6 8 .             ",
"        . V U.E.E.E.E.E.Y.Y.Y.Y.E.E.E.E.Y.E.E.E.E.E.E.k.$ t x.U.E.E.E.E.E.E.E.3.7 X D G.E.E.E.I.C o ( d.d.y.N + . .             ",
"        . $ g.E.Y.E.E.E.Y.Y.Y.Y.E.E.E.E.Y.E.E.E.E.E.L.a.8 { A.E.E.E.E.E.E.G.) % + _ H.E.E.E.U.) X %  .d.s.d.u.6 .               ",
"          . h H.E.Y.E.E.E.Y.Y.Y.Y.E.Y.Y.Y.Y.E.E.E.E.U.b.x.b.U.E.Y.Y.E.I.4.y . 7 2.Y.E.E.E.Y.X.+ : X & ' d.d.Z . .               ",
"          . X +.E.Y.E.E.E.Y.Y.Y.Y.Y.Y.Y.Y.Y.E.E.E.Y.Y.Y.U.Y.E.E.E.I.f.c O O G C.E.E.E.E.I._ O s r.E + $ ( [ % .                 ",
"            . ; k.E.E.E.E.E.Y.Y.Y.Y.E.E.E.E.E.E.E.E.E.E.~.~.E.D.%.g O X c f.I.E.E.E.E.F.D o s y.d.s.' - + & .                   ",
"              . i D.E.E.E.E.Y.Y.Y.Y.E.E.E.Y.N.V.I.I.K.D.h.+.c < . $ C 3.I.E.E.E.E.E.g.y X . m s.d.s.d.{ # .                     ",
"                . c F.E.E.E.E.E.Y.Y.Y.E.E.k.; * 0 0 0 ; o . + y ..l.I.E.E.E.E.E.D.J % - / t X ! d.d.u.d . .                     ",
"                . . c D.E.E.E.E.E.Y.E.E.E.C._ h 0 0 0 h ~ %.k.K.E.E.E.E.E.E.F.X.7 X s w.d.[ + & | u.s . .                       ",
"                  . . y k.E.E.E.E.E.E.E.E.E.E.I.I.I.I.I.E.~.E.E.E.E.E.E.V._ 7 . . : r.d.s.s.A . 6 t . .                         ",
"                      . ; _ F.E.E.E.E.E.E.E.E.E.E.E.E.E.E.E.E.E.E.K.g.D , . 5 W u . u t.d.d.i.t . .                             ",
"                      . . . 9 ) g.F.I.U.E.E.~.~.~.~.~.E.E.I.F.g.~ y O . % / y.d.r.u . u r.r.M + .                               ",
"                        . . . . o 2 y c V J o.%.&.&.O.J V g 2 o X : M : X W d.s.d.u.m X : - . .                                 ",
"                            . . . . . X . . . . . . . . . . . d [ y.d.] # + ] d.d.r.N o . .                                     ",
"                              . . o s ' { ! Z : . : Q / ( t . 8 r.d.s.d.( # & E m - . .                                         ",
"                                  . X : M [ i.' # o ! d.z.u.M X 8 =.d.i.| t . . . .                                             ",
"                                    . . . X : a : . o M r.y.e.s . - s 6 + . . .                                                 ",
"                                          . . . . . . . - : & o . . . . .                                                       ",
"                                                      . . . . .                                                                 ",
"                                                                                                                                ",
"                                                                                                                                "
};
