/* XPM */
static char *_e3f1b6171084259fe9bab76ff690a3crBZvXAzWqiheoKhG[] = {
/* columns rows colors chars-per-pixel */
"64 64 42 1 ",
"  c #47704C",
". c black",
"X c black",
"o c black",
"O c None",
"+ c black",
"@ c black",
"# c black",
"$ c black",
"% c black",
"& c black",
"* c black",
"= c black",
"- c black",
"; c black",
": c black",
"> c black",
", c black",
"< c black",
"1 c black",
"2 c black",
"3 c black",
"4 c black",
"5 c black",
"6 c black",
"7 c black",
"8 c black",
"9 c black",
"0 c black",
"q c black",
"w c black",
"e c black",
"r c black",
"t c black",
"y c black",
"u c black",
"i c black",
"p c black",
"a c black",
"s c black",
"d c black",
"f c black",
/* pixels */
"           4o:ffffffffffffffffffffffffffffffffffff:o4           ",
"         <offffffffffffffffffffffffffffffffffffffffffo<         ",
"        .;ffffffffffffffffffffffffffffffffffffffffffff;.        ",
"        @ffffffffffffffffffffffffffffffffffffffffffffff@        ",
"       -OffffffffffffffffffffffffffffffffffffffffffffffO-       ",
"       *ffffO&X                                  X&Offff*       ",
"       >ffff@                                      @ffff>       ",
"       #ffff$                                      $ffff#       ",
"       #ffff$                                      $ffff#       ",
"       #ffff$                                      $ffff#       ",
"       #ffff$                                      $ffff#       ",
"       #ffff$                                      $ffff#       ",
"       #ffff$                                      $ffff#       ",
"       #ffff$                                      $ffff#       ",
"       #ffff$                                      $ffff#       ",
"       #ffff$                           <-         $ffff#       ",
"       #ffff$                          s8f5        .,fff#       ",
"       #ffff$                          dfff,X       7uff#       ",
"       #ffff$                          #ffff3=        iO#       ",
"       #ffff$                          #fffffe0        p@       ",
"       #ffff$                          #ffffff9t        .       ",
"       #ffff$                          #fffffff82               ",
"       #ffff$                          #fffffffffy              ",
"       #ffff$                          #ffffffffff>7            ",
"       #ffff$          6*%%%%%%%%%%%%%%;fffffffffffr.           ",
"       #ffff$         2Offffffffffffffffffffffffffff1=          ",
"       #ffff$         1ffffffffffffffffffffffffffffffq6         ",
"       #ffff$         +fffffffffffffffffffffffffffffff:w        ",
"       #ffff$         +ffffffffffffffffffffffffffffffffO&       ",
"       #ffff$         +ffffffffffffffffffffffffffffffffff5      ",
"       #ffff$         +fffffffffffffffffffffffffffffffffff,X    ",
"       #ffff$         +ffffffffffffffffffffffffffffffffffff3=   ",
"       #ffff$         +ffffffffffffffffffffffffffffffffffff3=   ",
"       #ffff$         +fffffffffffffffffffffffffffffffffff,X    ",
"       #ffff$         +ffffffffffffffffffffffffffffffffff5      ",
"       #ffff$         +ffffffffffffffffffffffffffffffffO&       ",
"       #ffff$         +fffffffffffffffffffffffffffffff:w        ",
"       #ffff$         1ffffffffffffffffffffffffffffffq6         ",
"       #ffff$         2Offffffffffffffffffffffffffff1=          ",
"       #ffff$          6*%%%%%%%%%%%%%%;fffffffffffr.           ",
"       #ffff$                          #ffffffffff>7            ",
"       #ffff$                          #fffffffffy              ",
"       #ffff$                          #fffffff82               ",
"       #ffff$                          #ffffff9t        .       ",
"       #ffff$                          #fffffe0        p@       ",
"       #ffff$                          #ffff3=        iO#       ",
"       #ffff$                          afff,X       7uff#       ",
"       #ffff$                          09f5        .,fff#       ",
"       #ffff$                           X-         $ffff#       ",
"       #ffff$                                      $ffff#       ",
"       #ffff$                                      $ffff#       ",
"       #ffff$                                      $ffff#       ",
"       #ffff$                                      $ffff#       ",
"       #ffff$                                      $ffff#       ",
"       #ffff$                                      $ffff#       ",
"       #ffff$                                      $ffff#       ",
"       #ffff$                                      $ffff#       ",
"       >ffff@                                      @ffff>       ",
"       *ffffO&X                                  X&Offff*       ",
"       -OffffffffffffffffffffffffffffffffffffffffffffffO-       ",
"        @ffffffffffffffffffffffffffffffffffffffffffffff@        ",
"        .;ffffffffffffffffffffffffffffffffffffffffffff;.        ",
"         <offffffffffffffffffffffffffffffffffffffffffo<         ",
"           4o:ffffffffffffffffffffffffffffffffffff:o4           "
};
