/* XPM */
static char *b1df5ccd5ba84674d1450cfe31306227ub74DXJBIgjtGIcW[] = {
/* columns rows colors chars-per-pixel */
"64 64 248 2 ",
"   c None",
".  c #1C1A1B",
"X  c #181718",
"o  c #221B1C",
"O  c #1B1D26",
"+  c #1A1F30",
"@  c #221E20",
"#  c #251E2A",
"$  c #1E2126",
"%  c #1D2D3C",
"&  c #192736",
"*  c #242224",
"=  c #25262A",
"-  c #25292C",
";  c #2C2B2D",
":  c #292426",
">  c #322E2E",
",  c #2B2D32",
"<  c #252B38",
"1  c #322C37",
"2  c #2C3134",
"3  c #2C343B",
"4  c #333335",
"5  c #33353A",
"6  c #34393D",
"7  c #3A3A3D",
"8  c #3B3537",
"9  c #37302F",
"0  c #42363F",
"q  c #1B3447",
"w  c #1D354D",
"e  c #252E43",
"r  c #223546",
"t  c #28374A",
"y  c #353C41",
"u  c #3C3C42",
"i  c #373A49",
"p  c #2A3D53",
"a  c #373D56",
"s  c #433D47",
"d  c #4C3A58",
"f  c #3D4145",
"g  c #3D434B",
"h  c #38444A",
"j  c #284258",
"k  c #3D4353",
"l  c #334A5D",
"z  c #384559",
"x  c #2A4A67",
"c  c #344C64",
"v  c #384A64",
"b  c #2C516D",
"n  c #38536B",
"m  c #355B7C",
"M  c #395876",
"N  c #2A5477",
"B  c #3A627C",
"V  c #424245",
"C  c #43454B",
"Z  c #45494E",
"A  c #4A4A4D",
"S  c #4A4448",
"D  c #434555",
"F  c #444B52",
"G  c #4B4D52",
"H  c #444B5B",
"J  c #4A4C5A",
"K  c #464659",
"L  c #524E55",
"P  c #4C525D",
"I  c #4C5156",
"U  c #535256",
"Y  c #54545B",
"T  c #5B585B",
"R  c #514C4F",
"E  c #615B5E",
"W  c #464C64",
"Q  c #554C64",
"!  c #4A5366",
"~  c #4C556A",
"^  c #46566A",
"/  c #5C5C63",
"(  c #53546C",
")  c #565868",
"_  c #465975",
"`  c #535C74",
"'  c #5A5A77",
"]  c #414D72",
"[  c #645E63",
"{  c #5A616C",
"}  c #47627C",
"|  c #54657A",
" . c #5A6478",
".. c #666369",
"X. c #63627A",
"o. c #676575",
"O. c #74696B",
"+. c #375B86",
"@. c #34588B",
"#. c #3B6686",
"$. c #396A96",
"%. c #3C7298",
"&. c #3A76A0",
"*. c #476686",
"=. c #5B6B83",
"-. c #576987",
";. c #5C738D",
":. c #56728B",
">. c #456B96",
",. c #556D99",
"<. c #457393",
"1. c #497499",
"2. c #5C7492",
"3. c #537B9E",
"4. c #577699",
"5. c #4A748A",
"6. c #626D82",
"7. c #656988",
"8. c #65738B",
"9. c #78738D",
"0. c #696E92",
"q. c #647593",
"w. c #647B9B",
"e. c #6B7C9D",
"r. c #687796",
"t. c #767899",
"y. c #716889",
"u. c #477AA6",
"i. c #5879A2",
"p. c #5078AE",
"a. c #6A7DA3",
"s. c #7A7CA4",
"d. c #87799C",
"f. c #837EA9",
"g. c #65839D",
"h. c #70839C",
"j. c #5784A9",
"k. c #4B86B6",
"l. c #5787B5",
"z. c #5793BA",
"x. c #4885AC",
"c. c #6D81A2",
"v. c #6B88A9",
"b. c #7382A5",
"n. c #7485AB",
"m. c #7B85AC",
"M. c #758AAD",
"N. c #778BAD",
"B. c #698AB9",
"V. c #7B8CB3",
"C. c #778BB7",
"Z. c #6996BA",
"A. c #7998B8",
"S. c #6E94AD",
"D. c #568BC5",
"F. c #5A97C8",
"G. c #5997D4",
"H. c #4D8EC9",
"J. c #679BCA",
"K. c #649ED5",
"L. c #7492C8",
"P. c #5BA6D4",
"I. c #68A5CD",
"U. c #67A7DA",
"Y. c #77A8DA",
"T. c #72AED1",
"R. c #68A8E5",
"E. c #75ABE5",
"W. c #6AB5EA",
"Q. c #77B5E8",
"!. c #78B8F1",
"~. c #67B7F1",
"^. c #5FA2E5",
"/. c #79C5F4",
"(. c #76C4EB",
"). c #83829C",
"_. c #8484AB",
"`. c #838BB4",
"'. c #838DBB",
"]. c #8989B6",
"[. c #8491BD",
"{. c #8B91BD",
"}. c #849AB7",
"|. c #9796BA",
" X c #928CAE",
".X c #A697BA",
"XX c #A488B4",
"oX c #89A4BD",
"OX c #90A4BF",
"+X c #8997C6",
"@X c #9897C9",
"#X c #849AD8",
"$X c #9B9ED2",
"%X c #8C8DC0",
"&X c #A599CB",
"*X c #A39CD2",
"=X c #AB9ED5",
"-X c #A38FC5",
";X c #88A9C6",
":X c #95A6C7",
">X c #86B4C8",
",X c #9AA9D8",
"<X c #88B8DA",
"1X c #96B8D3",
"2X c #93B5D1",
"3X c #A7A5D9",
"4X c #B4A6DB",
"5X c #A8B4DC",
"6X c #AFABCB",
"7X c #87B8E6",
"8X c #8CB0E9",
"9X c #A9ADE4",
"0X c #B8A9E5",
"qX c #A3B6E5",
"wX c #B5B6EA",
"eX c #ADBFF2",
"rX c #C4A9CF",
"tX c #C5ACE7",
"yX c #C8B5EA",
"uX c #CDBEF4",
"iX c #D6B8F3",
"pX c #A7C6DA",
"aX c #B7C6D9",
"sX c #87C5EB",
"dX c #97C8E5",
"fX c #97D4EA",
"gX c #85C8F3",
"hX c #89D7F6",
"jX c #96D7F4",
"kX c #94CEF0",
"lX c #A6C4E6",
"zX c #B8C3E7",
"xX c #A8D4F4",
"cX c #B6D0F1",
"vX c #98E9FB",
"bX c #8FEBFB",
"nX c #A3E9F9",
"mX c #B6EAF7",
"MX c #ADF6FD",
"NX c #B6F5FC",
"BX c #90C0D5",
"VX c #C7C8F8",
"CX c #D1CFF0",
"ZX c #D6E7F8",
"AX c #CAFAFC",
"SX c #D0ECF8",
"DX c #E7ECFB",
"FX c #E3C0F8",
/* pixels */
"                                | =.|  .                                                { `  .=.                                ",
"                                z  .~ ! 7 G G G G L L [ O.O.[ T ../ Y T / ../ ) J g g h P H 8.-.                                ",
"                                ! z | ! 4 4 f G / ../ G 7 S Y S 5 s u 5 4 7 C J J h F g D z v -.                                ",
"                                { z ~ k > 8 4 7 7 7 4 4 S 8 ; ; * ; 4 , : ; ; ; 4 5 = . i P ` !                                 ",
"                                $ X X X & r & % j n t t M p j t t r l p c p < r & % r r X . X X                                 ",
"                                g 2 , X t $.$.#.B u.l.Y.Q.Y.#.#.M 3.l.D.<XJ.>.l.#.1.u.>.* , 3 6                                 ",
"                                o.{ F O j k.z.u.<.m u.U.sXK.} <.1.i.i.L.<XfXp.J.J.K.F.<.5 u C Z                                 ",
"                                I P F ; } z.F.sXQ.r n sXsXQ.%.z.j.B.#XB.C.cX}.<X8XdXI.m 5 y y 2                                 ",
"                                f - = X l z.F.U.S.p & T.jXI.k.j.J.8XqX#X*X9X].-.M.;Xz.b X = - -                                 ",
"                                = X ; X % w <.<.N N q %.I.P.z.v.A.dXL.9XCXzX+XC.W ;.4.x X - - 5                                 ",
"                                V C u X e % % b #.x $.B %.T.g.t.n.*.,.#X-X,.] a.t.CX'.% X = 2 f                                 ",
"                                / C S X < M x.z.x.+.x.z.j.} 6.X.r.-.p.Y.D.@.L.zX6XCXs.p X 2 y g                                 ",
"                                Y I V X z :.<XQ.z.&.z.z.` ) ~ | =.X.7.C.E.8XlXCXyXd.D p . > 2 7                                 ",
"                                G Z u . ! } >XdXl.#.l.;.H { z :.n ` t.0.dXE.8XVX9X7.c } . 8 A 4                                 ",
"                                Y F 6 . =.S.AXjX*.#._ 6.z a M B.*.j ~ 0.0.j.<XmXxX:.e % X 8 Y T                                 ",
"                                ) ! f . 6.*.mXjXb #.l z e < x j.*.p a =.W c *.Z.l.m w % X 4 V 4                                 ",
"                                { ) C o ~ 2.5.B #.u.<.t < < & q r + e a m >.p.@.N $.+.v X - 7 V                                 ",
"                                ) J f o ` 2.c j B Z.5.N j < & O + & e #.D.7XgXD.$.~.k.r X 4 , 7                                 ",
"                                F g V . ( w.c c #.W.P.x.m l i t z a +.D.R.!.jXsXD.sXZ.;.X 4 8 2                                 ",
"                                C 2 V X W c._ *.F.U.P.z.#.#.z K _ +.H.G.7XmXNXdXY.kXA.q.X ; R 7                                 ",
"                                G 5 u X ( [.2.*.W.W.P.l.<.#.#.v *.I.G.H.R.xXSX1XgXE.a.b.. 4 u U                                 ",
"                                A S u X ~ V.C.m J.J.G.E.P.k.u.M F.U.R.^.Q.gXE.j.!.J.n.t.. 5 y C                                 ",
"                                Y U 7 . ~ +Xn.*.3.K.U.F.I.U.D.u.F.U.E.!./.kXJ.3.4.-.{.q.. 4 6 g                                 ",
"                                T G 7 X ` '.n.:.<.l.gXQ.I.z.k.k.D.Z.J.I.I.<XU.z.j.r.+Xb.. , 3 F                                 ",
"                                L Z 7 X ~ M.C.} <.l.Q.gXQ.j.1.k.U.Q.Y.E.T.jX7X<Xj.+X+Xe.X 4 6 Z                                 ",
"                                ..6 u . ^ n.M.C.1.Z.kXgX<Xi.u.U.W.Q.sXD.7XkX7X<XB.+X+Xr.X 4 V C                                 ",
"                                E 6 7 . ^ M.V.+X4.g.T.x.j.u.x.Q.gXR.W.U.gXxX1X2X'.@XV.q.. 2 V C                                 ",
"                                G y 7 . ! V.V.[.w._ k.u.1.k.u.Q.K.G.!.Q.jXlXY.A.*X@X'.r.. 4 f T                                 ",
"                                / F u . ! e.n.V.+X>.g.>.k.u.G.W.H.R./.gXsXcX;Xa.&X@X{.8.O 5 6 U                                 ",
"                                ..P u . ! w.[.+X,Xl.u.1.J.U.R./.~.bXgXsX<XdX4.+X@X]._.6.. 7 F f                                 ",
"                                { H 7 . W c.$X3X:Xi.1.3.kXnXgX~.~.nXvXdX2XZ.i.,X3X9.9. .. 4 6 G                                 ",
"                                I F 7 X z n.3X3X,Xn.*.>XMXNXnXgXhXvXnXBX>Xu.C.3Xt./ o.J . ; f f                                 ",
"                                A u 5 . z N.@X[.+X+X} >XMXMXNXfX/.hXjXJ.A.$.+X{.K X.Q s . 4 y Y                                 ",
"                                G S 7 X H M.@XV.M.v.:.3.nXMXAXfX^.gXfXF.Z.u.%X` J y s 1 . 5 3 F                                 ",
"                                Y F V . ~ g.e.b.b.w.4.*.jXvXMXNXP.F.F.E.$.4.C. .i - , 1 * 5 2 y                                 ",
"                                T Z 4 o D M.b.e.m.n.v._ fXvXvXmX(.u.$.k.+.B.V. .i + - , @ 5 3 6                                 ",
"                                E Z 5 o  .;.M.m.`.'.a.*.>XAXnXnXbXm @.u.3.C.`.! O < 1 = o 5 3 y                                 ",
"                                O.C 7 o r.w.;.q.b.`.a.M.v.AXMXbXMXz.%.3.w.[.`.e.g u u 5 o 5 6 f                                 ",
"                                E G 6 . 8.1.w.;.b.`.n.C.l.SXMXbXhXJ.i._ m.m.a.e.` i u J . 5 y 6                                 ",
"                                L Z 7 o W _ -.e.N.{.b.n.B.dXnXvX/.D.u.i.'.V.r.r.e.` ` 8.. 4 2 5                                 ",
"                                Y f 6 . k v h.pXpXn.e.w.M.B.sXhX/.p.+.a.{.{.e.b.n.c.e.8.. ; $ 5                                 ",
"                                U 2 u o < ^ ` +XB.2.r.2.w.1.7XjXkX4._ n.`.'.V.m.V.M.r.| X = = 4                                 ",
"                                R - f o a -.=.Z.L.^ b.2.r.n T.kXxX*.2.m.V.[.[.+X,X;XN.).. ; - S                                 ",
"                                g 3 S o  .A.;.N.v -.m.m.b.a.3.8X7X,.n.%X{.'.$X5XVXDXzX0.o ; 7 G                                 ",
"                                F y S o H S.A.^ ^ e.m.m.m.'.*.L.<Xa.'.@XV.'.3XZXDXzX_.' @ ; A u                                 ",
"                                Z C 7 o K w.;.l ;.N.`.t.].*Xb.l.B.@X@X@X`.m.7.|.|.` f. X* > 7 u                                 ",
"                                ..T 7 o D | z -.b.:X`.].].yX3X;X+X@X%X&X].8.=.t 0.n.|.( * 4 2 6                                 ",
"                                G ..S o i t r.SXSXZX9X@X&XyX0X6X4X0X].@Xs.q.a.7._.s.( ).* 4 5 g                                 ",
"                                T C F o 1 W qXCXSXSX5X$X&XtX0X3X=XtX].].f._.s.0.' t.d. Xo 4 6 f                                 ",
"                                I f f o i ^ ;XlXqX6X|.&X&XtXiXtX=X&X0X&X@X{.c.r.' _.4X X@ 5 y A                                 ",
"                                F h u o y 4.oXr.m._.@X0XtXiXiXFXtX4X*X@X[.M.c.v.=.t. XW @ u g Y                                 ",
"                                F h y o k q.5XaXV.{.4X0X0XtXtXyXyX0X*XV.V.M.v.C.b.6X6XQ * u Y f                                 ",
"                                F h u o k v -.:X:X{.4X*X{.@X4X4X=X3X+XM.V.V.A.}.6Xt..XH : s R 7                                 ",
"                                k F f o 3 v g.A.-.|.=X@XN.*X4X4X3X9X3XV.V.+X,X5X).` t.( : 8 u C                                 ",
"                                { y f o < & & < t 7.=X$X+X3X$XwXwXyXiX9X:X,XzXCX|.7.X.( * 9 y G                                 ",
"                                f f V : r.oX}.g._ 7.@X3X,X0X$X0XuXuXFXuXwXCXVXCX.XQ d.9.@ > = ,                                 ",
"                                / o.{ s 6.| z c *.OX2X5XwXwX3X0X9XwXVXVXVXCXyXrXXXQ 1 Q 9 4 6 f                                 ",
"                                - f Z S t < j A.2Xg.1Xv.V.wX,X,XqXeXVXcXVXCX.Xd.rX.Xd # > - $ -                                 ",
"                                6 2 2 8 i | A.A.=.-.A.M x :XzXcXeXqXVXZXCXCXXXy.' .XXXs 0 4 - -                                 ",
"                                h y 2 8 6.:Xg.| _ 2.j.b x pXcXcXcXSXSXmX:X|.&Xy.W ( 7.X.S J F u                                 ",
"                                P  .) s 8.;X| l w.*.c j :.xX1XpXpXcXSXpX}._._._.|.' ( X.Y ( ' '                                 ",
"                                g K ) , { ^ & _ -.4.} j A.<X:.<.i.%.oXoX*.w.| ;.v.:._ ~ J K Q X.                                ",
"                                k ' g , < & q p p b w t :._ r t *.} v.*.v.v.w._ M M M ~ K D ! K                                 ",
"                                D Z D y u u u u D J D C L / Y o.9.X.) ) ) ) Y ) ) J K s D ! ) (                                 "
};
