/* XPM */
static char *_e467da7de4b4763cf7fb009b67ec9e2br09hGRvbu8CeX9m[] = {
/* columns rows colors chars-per-pixel */
"64 64 106 2 ",
"   c None",
".  c #0D0215",
"X  c #0E0218",
"o  c #12031C",
"O  c #2F1413",
"+  c #170424",
"@  c #190427",
"#  c #1B042A",
"$  c #22062E",
"%  c #240634",
"&  c #270739",
"*  c #2B073D",
"=  c #2A083D",
"-  c #112027",
";  c #19282D",
":  c #63100F",
">  c #6E0629",
",  c #452826",
"<  c #412B28",
"1  c #53352E",
"2  c #4F4B3B",
"3  c #2E0743",
"4  c #2E0844",
"5  c #300745",
"6  c #310847",
"7  c #310648",
"8  c #34094B",
"9  c #3B0A54",
"0  c #3E0A5A",
"q  c #4E094E",
"w  c #4A0A52",
"e  c #410B5D",
"r  c #46145E",
"t  c #48175F",
"y  c #4C1E5E",
"u  c #673C5D",
"i  c #594940",
"p  c #5B5749",
"a  c #5E5C4C",
"s  c #6A4D44",
"d  c #66584D",
"f  c #695A4D",
"g  c #636356",
"h  c #6A6955",
"j  c #716C55",
"k  c #746859",
"l  c #7D735F",
"z  c #79646D",
"x  c #7F6E6F",
"c  c #767561",
"v  c #7F7462",
"b  c #8B292C",
"n  c #94312A",
"m  c #9D5D4F",
"M  c #806857",
"N  c #806E6F",
"B  c #9A6F64",
"V  c #997462",
"C  c #5B8931",
"Z  c #618334",
"A  c #6F873E",
"S  c #708A3E",
"D  c #6F8342",
"F  c #7F9E45",
"G  c #87A54A",
"H  c #87B14B",
"J  c #89B24A",
"K  c #90B84E",
"L  c #98B752",
"P  c #85816A",
"I  c #8A866D",
"U  c #929B68",
"Y  c #868570",
"T  c #8C8574",
"R  c #8B8A73",
"E  c #8F8F79",
"W  c #958F79",
"Q  c #998F79",
"!  c #949077",
"~  c #95937B",
"^  c #99957B",
"/  c #9B987E",
"(  c #A2957E",
")  c #A7C85F",
"_  c #A2D758",
"`  c #B9E466",
"'  c #BBE169",
"]  c #C7EA72",
"[  c #D1E87A",
"{  c #9D9B81",
"}  c #A09E84",
"|  c #A1A087",
" . c #A5A48A",
".. c #A9A78D",
"X. c #A9A38A",
"o. c #A9A88E",
"O. c #A9A98F",
"+. c #AAA98F",
"@. c #A9A990",
"#. c #AAAA90",
"$. c #CFDF85",
"%. c #E2EE97",
"&. c #E3EE9C",
"*. c #CCD0A8",
"=. c #F2F1C3",
"-. c #F0E9D5",
/* pixels */
"                                                              | g     c ..^ ~                                                   ",
"                                                            } } /   { o.} o.o.{ p                                               ",
"                                                          M  .o. ...{  ./  .| ..|                                               ",
"                                                          ~ o. .} f } / ^ } {  .{ h                                             ",
"                                              { ~       ~ ~ R  .s : V ^ ~ ^ ^ { ..~                                             ",
"                                            ! I P ~   1 i d @.X.m n ^ { c c ~ / } ~                                             ",
"                                            P 2   ~ v , < ^ @...V s ^ Y - ; E { { R                                             ",
"                                                  j l O k @.o.( b u { ^ Y Y  ./ { a                                             ",
"                                                    j v { W Q B > r N /  .{ ..{ T                                               ",
"                                                        y e w q e e r z T ! W x y &                                             ",
"                                                      8 0 6 * * * 6 e e r y t e e 0 &                                           ",
"                                                      5               8 e e e e e e 0                                           ",
"                                                    %                   8 e e e e e e 9                                         ",
"                                                            C             0 e e e e e 0 =                                       ",
"                                                          Z J S           % e e e e e e 8                                       ",
"                                                              K _ Z       % e e e e e e 0 $                                     ",
"                                                            F ' ` H       % e e e e e e e 9                                     ",
"                                                9         G ] %.[ L       % e e e e e e e 0                                     ",
"                                              3 9         ) &.=.$.A       % e e e e e e e e 8                                   ",
"                                              e 9         D *.-.U         0 e e e e e e e e 9                                   ",
"                                              e 0                       = e e e e e e e e 9 *                                   ",
"                                              e e 0                 % 9 e e e e e e e e 9                                       ",
"                                              e e e 0 4           9 e e e e e e e e e 9                                         ",
"                                              e e e e e e e e e e e e e e e e e e e e e 4                                       ",
"                                              9 e e e e e e e e e e e e e e e e e e e e 0 %                                     ",
"                                                e e e e e e e e e e e e e e e e e e e e e 4                                     ",
"                                                % 8 8 0 e e e e e e e e e e e e e e e e e 0 8                                   ",
"                                                    + # * 9 e e e e e e e e e e e e e e e e 9                                   ",
"                                                      + + # 6 e e e e e e e e e e e e e e e 0 5                                 ",
"                                                      . + + @ 6 e e e e e e e e e e e e 0 9 % 8 9                               ",
"                                                          + + @ 6 e e e e e e e e 0 *   0       0 3                             ",
"                                                          + + + # 6 e e e e 0 3 e 0 &   0       * =                             ",
"                                                        o + + + + @ 6 9 9 0 0 & 9 0 &   6       *                               ",
"                                                        + + + + + + + + + # 8   * 0 &         9                                 ",
"                                                        + + + + + + + + + + @   e 0 &       % *                                 ",
"                                                        + + + + + + + + + + +   e 0 &       0 &                                 ",
"                                                        + + + + + + + + + + o   e 0 &       9                                   ",
"                                                      o + + + + + + + + + + .   e 0 &       9                                   ",
"                                                      o + + + + + + + + + o     e 0 &       9                                   ",
"                                                      + + + + + + + + + + +     e 0 &       8                                   ",
"                                                      + + + + + + + + + + o     6 0 &                                           ",
"                                                    . + + + + + + + + + + .     % 0       6                                     ",
"                                                    o + + + + + + + + + +       % 9     5 &                                     ",
"                                                    + + + + + + + + + + o       % 9   & e 4                                     ",
"                                                  o + + + + + + + + + + .         9   0 e 6                                     ",
"                                                o + + + + + + + + + + +           9   8 e 9                                     ",
"                                                + + + + + + + + + + + +           7     8 0 3                                   ",
"                                              . + o   + + + + + + + + +           &       % 0 =   3                             ",
"                                              + + + . + + + + + + + + + .                     e 9 8                             ",
"                                              . + + + + + + + + + + + + +                       9 9                             ",
"                                              . + + + + + + + + + + + + +                         =                             ",
"                                                o + + + + + + + + + + + + o                                                     ",
"                                                  + + + + + + + + + + + + +                                                     ",
"                                                + + + + + + + + + + + + + + o                                                   ",
"                                                + + + + + + + + + + + + + + + .                                                 ",
"                                                + + + + + + + + + + + + + + + +                                                 ",
"                                                o + + + + + + + + + + + + + + + + .                                             ",
"                                                  o + + + + + + + + + + + + + + + + +                                           ",
"                                                    o + + + + + + + + + + + + + + + + + o .                                     ",
"                                                      + + + + + + + + + + + + + + + + + + + + o .                               ",
"                                                        + + + + + + + + + + + + + + + + + + + + + + o                           ",
"                                                        X + + + + + + + + + + + + + + + + + + + + + + +                         ",
"+ .                                                       . + + + + + + + + + + + + + + + + + + + + + + + + .                   ",
"+ + +                                                       . + + + + + + + + + + + + + + + + + + + + + + + + + +               "
};
