/* XPM */
static char *_066603599e249a7e1bb71b8d67cb912spFZBjepZvn6m59Y[] = {
/* columns rows colors chars-per-pixel */
"64 64 177 2 ",
"   c None",
".  c #0D0915",
"X  c #0F0B18",
"o  c #100917",
"O  c #130C1C",
"+  c #322C0A",
"@  c #3A330B",
"#  c #2A2216",
"$  c #160E23",
"%  c #180F24",
"&  c #191127",
"*  c #1C132C",
"=  c #1F1831",
"-  c #211634",
";  c #211934",
":  c #261B3B",
">  c #281E3E",
",  c #1E2736",
"<  c #1A202E",
"1  c #2D2425",
"2  c #32292D",
"3  c #38332B",
"4  c #23233C",
"5  c #232C3E",
"6  c #382D37",
"7  c #3F3A35",
"8  c #423738",
"9  c #483D3E",
"0  c #433A21",
"q  c #3A782E",
"w  c #544B1C",
"e  c #625613",
"r  c #564B3C",
"t  c #5B503B",
"y  c #51513E",
"u  c #534B30",
"i  c #685D28",
"p  c #635D32",
"a  c #726B37",
"s  c #2B1C42",
"d  c #2C2244",
"f  c #2F2249",
"g  c #31254C",
"h  c #33294F",
"j  c #223440",
"k  c #263B49",
"l  c #352A53",
"z  c #3A2F5A",
"x  c #352653",
"c  c #423540",
"v  c #462E6D",
"b  c #402B63",
"n  c #413264",
"m  c #45346B",
"M  c #492F71",
"N  c #4A3673",
"B  c #4E387A",
"V  c #4E3779",
"C  c #50377C",
"Z  c #30424E",
"A  c #2C4454",
"S  c #314C5A",
"D  c #375358",
"F  c #2B434B",
"G  c #3A5A66",
"H  c #3D6067",
"J  c #444E44",
"K  c #544940",
"L  c #565C46",
"P  c #574C52",
"I  c #615745",
"U  c #6B5F5A",
"Y  c #6A634A",
"T  c #7A6E46",
"R  c #787348",
"E  c #716F57",
"W  c #78755B",
"Q  c #6C685A",
"!  c #4C787A",
"~  c #43696E",
"^  c #80732D",
"/  c #897C35",
"(  c #81784D",
")  c #82697D",
"_  c #927F6C",
"`  c #458E37",
"'  c #479138",
"]  c #5FA73F",
"[  c #548545",
"{  c #5FAF43",
"}  c #6CA058",
"|  c #77C861",
" . c #8F8239",
".. c #91873E",
"X. c #8D824B",
"o. c #978C48",
"O. c #9B934C",
"+. c #9F9247",
"@. c #8F8851",
"#. c #8B8356",
"$. c #9B8E51",
"%. c #9F965A",
"&. c #9C9354",
"*. c #A5974C",
"=. c #A69E54",
"-. c #84A858",
";. c #9AB85C",
":. c #ACA356",
">. c #B5A75A",
",. c #B5AC5E",
"<. c #9A8475",
"1. c #969567",
"2. c #A29B61",
"3. c #A79867",
"4. c #91B364",
"5. c #AAA367",
"6. c #BAB464",
"7. c #B9B565",
"8. c #A4A474",
"9. c #AFAA74",
"0. c #AAAB78",
"q. c #B7AD79",
"w. c #B4B873",
"e. c #C4BC6C",
"r. c #C8BF6E",
"t. c #C0BE7D",
"y. c #83CD6C",
"u. c #96D57C",
"i. c #B1CC78",
"p. c #B5D57B",
"a. c #C2C16F",
"s. c #CCC573",
"d. c #CDC977",
"f. c #C7C57C",
"g. c #D2CC79",
"h. c #D6D27F",
"j. c #543784",
"k. c #593D8B",
"l. c #553B84",
"z. c #5C3F90",
"x. c #5E4092",
"c. c #755C81",
"v. c #507F82",
"b. c #6A45A5",
"n. c #8B7084",
"m. c #548684",
"M. c #BEBA87",
"N. c #C6BC82",
"B. c #BEE682",
"V. c #C6C886",
"C. c #DAD682",
"Z. c #DBDA86",
"A. c #D7D889",
"S. c #C9C897",
"D. c #D8D196",
"F. c #D9D398",
"G. c #CDCF91",
"H. c #E0DE89",
"J. c #D5EF97",
"K. c #C9EA94",
"L. c #E3E28D",
"P. c #E6E691",
"I. c #EBEC95",
"U. c #E9E89D",
"Y. c #EEF098",
"T. c #E2F597",
"R. c #F0F39A",
"E. c #DAD9A7",
"W. c #E0DBA4",
"Q. c #D6EFA9",
"!. c #E7E7A8",
"~. c #E2F5A8",
"^. c #FAFFA5",
"/. c #FAFFAE",
"(. c #FBFFB3",
"). c #FCFFBC",
"_. c #FCFFC7",
/* pixels */
"                                                                                                                                ",
"                              N j.                                                  k.x                                         ",
"                            X l x.j.                                              k.k.d                                         ",
"                            : l m x.j.                                          k.k.n l *                                       ",
"                          X f z z k.b.j.                                      k.b.B z z >                                       ",
"                          X f z z m x.b.j.                                  k.b.k.n z z >                                       ",
"                          * h z z z m x.b.j.                              k.b.k.n z z z d &                                     ",
"                        X - l z z z z k.b.b.j.M M M M M M M M M M M M M k.b.b.B z z z z h -                                     ",
"                        X - l z z z z m x.b.b.b.b.b.b.b.b.b.b.b.b.b.b.b.b.b.k.n z z z z h -                                     ",
"                        X - l z z z z z k.b.l.N N N N N N N N N N N N N z.b.B z z z z z h -                                     ",
"                        X - l z z h l B C N n z z z z z z z z z z z z z m N l.N z z z z h -                                     ",
"                        X - s l h v m m n z z z z z z z z z z z z z z z z z m n l l z z h -                                     ",
"                        X - s s v V n z z z z z z z z z z z z z z z z z z z z z N b l l s -                                     ",
"                        X - s s j.N z z z z z z z z z z z z z z z z z z z z z z m C b s s -                                     ",
"                          $ : v V n z z z z z z B k.k.k.k.k.k.k.k.k.m z z z z z z l.v s - O                                     ",
"                          X * z n z z z z z B k.) <.<.<.<.<.<.<.<.<.c.k.m z z z z m C x *                                       ",
"                          X : l z z z z B k.) <.3.>.>.>.>.>.>.>.>.>.3.<.c.k.m z z z m z ;                                       ",
"                          ; l z z z z B ) <.3.>.>.>.>.>.>.>.>.>.>.>.>.>.3.<.c.m z z z z h *                                     ",
"                        X f z z z z B ) 3.>.>.>.g.=.^ 6.H.H.H.:.a +.>.>.>.>.3.c.m z z z z >                                     ",
"                        ; l z z z z k.<.>.>.g.H.R.Z.a.P.^.^.^.Z.a.C.H.e.>.>.>.n.B z z z z h *                                   ",
"                      ; l z z z z z k.<.>.g.R.^.^.^.^.^.^.^.^.^.^.^.^.I.H.r.>.n.B z z z z z h *                                 ",
"                    ; l z z z z z U _ N.H.7.O.;.-.G.(.^.^.^.^.^.(.w.4.;.O.e.H.q.P g z z z z z h *                               ",
"                  * s l z z z z d ( g.R.).E.-.{ q } Q.(.^.^.^.(.K.[ ` ] 4.!.(.I.2.9 g z z z z l s %                             ",
"                  % * s g l z z ; T H.^.(.).Q.y.q ' y.J.^.^.^.K.| q ` u.~.)./.^.g.t d z z l g : * O                             ",
"                      % * s g g : 8 2.I.^.^.(.J.i.p.B.T.(._.(.J.B.i.p.~./.^.^.L.#.6 s g g : = O                                 ",
"                          % * : s : 8 2.I.^.^.^.^.^.^.^.f.%.A.^.^.^.^.^.^.^.L.#.6 : s - * O                                     ",
"                              % * * * 7 2.I.^.^.^.^.^.^.C.7.L.^.^.^.^.^.^.L.#.2 * * * O                                         ",
"                                        3 Y E V.^.^.^.^.^.^.^.^.^.^.^.0.E I 1                                                   ",
"                                              y E E E E E E E E E E E 3                                                         ",
"                                              * - = , 5 , < , 5 , = - $                                                         ",
"                                            * : 4 D G A j , k S H Z > : $                 1.                                    ",
"                                          * : 4 D m.! A L R J S v.! Z > : $             V.(.S.                                  ",
"                                        * : s 4 ~ m.G k R >.L k ~ m.D 4 s : $           w.^.).                                  ",
"                                      X - s s 4 S G k L &.>.@.J A G F 4 s s =           T P.(.                                  ",
"                                      ; g h s > 5 j L &.s.Z.e.@.J j 5 > f h f &         p C.^.                                  ",
"                                    o d z z l s ; y &.s.Y.^.I.e.@.7 : f l z z >         p C.L.                                  ",
"                                    ; l z z z s r $.s.Y.^.^.^.I.e.X.8 f z z z h *       @.I.2.                                  ",
"                                  o d z z z f K $.s.Y.^.^.^.^.^.I.e.X.9 h z z z > # @ i ,.6.                                    ",
"                                  ; l z z z : T s.Y.^.^.^.^.^.^.^.I.e.t d z z z h 2 i *.o.w                                     ",
"                                o d z z z z : 1.Y.^.^.^.^.^.^.^.^.^.I.Y d z z z z : Y o.w                                       ",
"                                o d z z z f Q A.L.I.^.^.^.^.^.^.^.L.I.V.P h z z z > u w                                         ",
"                                * h z z z : 8.^.d.Z.^.(.P.g.!.(.^.g.Z.^.W d z z z d 1                                           ",
"                              X - l z z z : 8.^.d.:.Z._.G.>.W.).d.:.Z.^.W d z z z h =                                           ",
"                              * : l z z z : 8.^.P...t._.q./ S._.=.:.I.^.W d z z z h : $                                         ",
"                            * : g l z z z : 8.^.^.6.%.E.2.e M.S.O.d.^.^.W d z z z l d : $                                       ",
"                          * d h l z z z f K f.^.^.P.:.%.a e X.O.6.I.^.^.5.9 h z z z l d : $                                     ",
"                        ; g l z z l l z : T H.^.^.^.P.:. . . .6.Y.^.^.^.g.t d z l l z l h s $                                   ",
"                    . ; l z z z z l l z : T H.^.^.^.^.P.C.C.C.I.^.^.^.^.g.t d z l l z z z l d * .                               ",
"                . ; d l z l l z z z z z : T H.^.^.^.^.^.^.^.^.^.^.^.^.^.g.t d z z z z z l l z h d * .                           ",
"              ; d l z z z l l z l l z z : T H.^.^.^.^.^.^.^.^.^.^.^.^.^.g.t d z z l l z l l z z z h d *                         ",
"            ; l z z z l l z z z l l z z : T H.^.^.^.^.^.^.^.^.^.^.^.^.^.g.I f z z l l z z z l l z z z h *                       ",
"            * > l z l h l z z l l z z z s 9 t.^.^.^.^.(.).).)./.^.^.^.^.3.c h z z z l l z z l h l z g > &                       ",
"                * > s f l z l s l z z z g * 8.^.^.^.^.U.D.D.D.U.^.^.^.^.W - h z z z h f l z l s > > &                           ",
"                    & - s h s s f h h h s * #.I.^.^.L.=./ / / ,.I.^.^.L.Y - f h h h s s f h > - $                               ",
"                        & - - : s s s s s * T s.I.^.7.w       i d.^.L.e.t - s s s s s : - - $                                   ",
"                              & - - - - - O u *.s.h...        @ =.h.e.+.0 % - - - - - $                                         ",
"                                            @ 5.F.F.X.        @ 5.F.F.o.                                                        ",
"                                              ( 9.9.p           R 9.9.p                                                         ",
"                                                + +               + +                                                           ",
"                                                                                                                                ",
"                                                                                                                                ",
"                                                                                                                                ",
"                                                                                                                                ",
"                                                                                                                                "
};
